<?xml version="1.0" encoding="utf-8"?>
<!-- Generator: Adobe Illustrator 16.0.0, SVG Export Plug-In . SVG Version: 6.00 Build 0)  -->
<!DOCTYPE svg PUBLIC "-//W3C//DTD SVG 1.1//EN" "http://www.w3.org/Graphics/SVG/1.1/DTD/svg11.dtd">
<svg version="1.1" id="Layer_1" xmlns="http://www.w3.org/2000/svg" xmlns:xlink="http://www.w3.org/1999/xlink" x="0px" y="0px"
	 width="182.569px" height="197.991px" viewBox="0 0 182.569 197.991" enable-background="new 0 0 182.569 197.991"
	 xml:space="preserve">
<path opacity="0.4" fill="#185D8D" d="M182.569,197.991c0,0-133.687,3.669-176.331-112.574h113.561
	C119.799,85.417,121.786,144.89,182.569,197.991z"/>
<path opacity="0.2" fill="#185D8D" d="M182.569,197.991c0,0-13.576-14.975-13.576-57.228c-16.12,0-129.051,0-129.051,0
	S82.943,195.726,182.569,197.991z"/>
<path opacity="0.9" fill="#185D8D" d="M17.872,34.902c-9.861,0-17.868-7.815-17.868-17.451C0.003,7.808,8.01,0,17.872,0
	c9.868,0,17.875,7.808,17.875,17.451C35.746,27.087,27.739,34.902,17.872,34.902z"/>
<path opacity="0.8" fill="#185D8D" d="M182.569,197.991c0,0-123.024-52.995-122.302-152.427c-30.518,0-60.267,0-60.267,0
	C0,130.319,81.738,197.991,182.569,197.991"/>
<rect x="117.009" y="96.06" fill="none" width="114" height="26"/>
<text transform="matrix(1 0 0 1 117.0088 114.5186)" display="none"><tspan x="0" y="0" display="inline" fill="#414042" font-family="'Archer-Medium'" font-size="26">St</tspan><tspan x="20.384" y="0" display="inline" fill="#414042" font-family="'Archer-Medium'" font-size="26">a</tspan><tspan x="32.915" y="0" display="inline" fill="#414042" font-family="'Archer-Medium'" font-size="26" letter-spacing="-2">ff</tspan><tspan x="45.474" y="0" display="inline" fill="#414042" font-family="'Archer-Medium'" font-size="26">P</tspan><tspan x="58.785" y="0" display="inline" fill="#414042" font-family="'Archer-Medium'" font-size="26">l</tspan><tspan x="64.167" y="0" display="inline" fill="#414042" font-family="'Archer-Medium'" font-size="26">a</tspan><tspan x="76.179" y="0" display="inline" fill="#414042" font-family="'Archer-Medium'" font-size="26">n</tspan></text>
</svg>
